<svg width="306" height="20" viewBox="0 0 306 20" fill="none" xmlns="http://www.w3.org/2000/svg">
<path d="M0 19.25V0H5.5V8.25H13.75V0H19.25V19.25H13.75V11H5.5V19.25H0ZM24.75 19.25V16.5H22V8.25H24.75V5.5H38.5V8.25H41.25V13.75H27.5V16.5H38.5V19.25H24.75ZM27.5 11H35.75V8.25H27.5V11ZM115.5 13.75H118.25V16.5H115.5V19.25H110V5.5H115.5V13.75ZM129.25 5.5V19.25H123.75V11H121V8.25H123.75V5.5H129.25ZM118.25 11H121V13.75H118.25V11ZM140.25 19.25V8.25H134.75V5.5H151.25V8.25H145.75V19.25H140.25ZM178.75 19.25V16.5H176V13.75H181.5V16.5H189.75V0H195.25V16.5H192.5V19.25H178.75ZM200.75 19.25V16.5H198V5.5H203.5V16.5H211.75V5.5H217.25V19.25H200.75ZM220 19.25V5.5H236.5V8.25H239.25V19.25H233.75V8.25H225.5V19.25H220ZM250.25 2.75V0H255.75V2.75H250.25ZM244.75 19.25V16.5H250.25V8.25H247.5V5.5H255.75V16.5H261.25V19.25H244.75ZM266.75 19.25V16.5H264V8.25H266.75V5.5H280.5V8.25H283.25V16.5H280.5V19.25H266.75ZM269.5 16.5H277.75V8.25H269.5V16.5ZM294.25 8.25H297V11H294.25V19.25H288.75V5.5H294.25V8.25ZM305.25 5.5V8.25H297V5.5H305.25Z" fill="black"/>
<path d="M44 19.25V0H60.5V2.75H49.5V8.25H60.5V11H63.25V16.5H60.5V19.25H44ZM49.5 16.5H57.75V11H49.5V16.5ZM66 19.25V0H85.25V2.75H71.5V8.25H82.5V11H71.5V16.5H85.25V19.25H66ZM93.5 19.25V16.5H90.75V13.75H88V5.5H90.75V2.75H93.5V0H104.5V2.75H107.25V5.5H101.75V2.75H96.25V5.5H93.5V13.75H96.25V16.5H101.75V13.75H107.25V16.5H104.5V19.25H93.5Z" fill="#AFA3FF"/>
</svg>
